<?xml version="1.0" encoding="iso-8859-1"?>
<!-- Uploaded to: SVG Repo, www.svgrepo.com, Generator: SVG Repo Mixer Tools -->
<svg height="20px" width="20px" version="1.1" id="Layer_1" xmlns="http://www.w3.org/2000/svg" xmlns:xlink="http://www.w3.org/1999/xlink" 
	 viewBox="0 0 512.001 512.001" xml:space="preserve">
<g>
	<path style="fill:#547475;" d="M465.893,324.073l3.387,0.908c24.916,6.677,39.708,32.291,33.03,57.21l-20.864,77.863
		c-6.676,24.92-32.293,39.708-57.21,33.03l-3.384-0.906L465.893,324.073z"/>
	<path style="fill:#547475;" d="M46.104,324.073l-3.384,0.908c-24.918,6.677-39.708,32.291-33.03,57.21l20.864,77.863
		c6.676,24.92,32.291,39.708,57.21,33.03l3.384-0.906"/>
</g>
<path style="fill:#688787;" d="M353.023,474.595c-2.003,7.477,2.432,15.159,9.911,17.163l40.608,10.882
	c7.475,2.001,15.162-2.434,17.163-9.911l45.338-169.206c2.001-7.477-2.434-15.159-9.911-17.163l-40.608-10.882
	c-7.477-2.001-15.162,2.434-17.165,9.91L353.023,474.595z"/>
<g style="opacity:0.2;">
	<path style="fill:#231F20;" d="M388.018,496.343c-7.479-2.004-11.914-9.687-9.911-17.163l45.337-169.206
		c1.311-4.893,5.061-8.467,9.588-9.803l-17.507-4.693c-7.477-2.001-15.162,2.434-17.165,9.91l-45.337,169.206
		c-2.003,7.477,2.432,15.159,9.911,17.163l40.608,10.882c2.584,0.692,5.186,0.601,7.577-0.106L388.018,496.343z"/>
</g>
<path style="fill:#688787;" d="M155.187,460.449l3.791,14.145c2.001,7.477-2.434,15.159-9.913,17.163l-40.608,10.882
	c-7.475,2.001-15.159-2.434-17.163-9.911L45.956,323.523c-2.003-7.477,2.432-15.159,9.911-17.163l40.608-10.882
	c7.475-2.001,15.159,2.434,17.165,9.91l34.712,129.553"/>
<g style="opacity:0.2;">
	<path style="fill:#231F20;" d="M116.108,487.874L70.77,318.668c-2.005-7.477,2.432-15.159,9.911-17.163l22.758-6.098
		c-2.219-0.546-4.603-0.561-6.964,0.071L55.867,306.36c-7.479,2.004-11.914,9.686-9.911,17.163l45.338,169.206
		c2.003,7.477,9.688,11.912,17.163,9.911l17.848-4.784C121.505,496.675,117.479,492.987,116.108,487.874z"/>
</g>
<path style="fill:#DBDDDD;" d="M443.579,121.169C408.953,54.514,339.253,8.881,259.093,8.881l-0.122,0.002
	c-0.071-0.002-0.141-0.002-0.194-0.002c-114.4,0-207.5,92.946-207.741,207.294c-0.508,10.247-1.194,45.835,10.102,88.772
	l33.943-9.093c-10.429-39.853-9.327-72.578-9.049-78.069l0.019-0.345c0.013-0.272,0.019-0.544,0.019-0.816
	c0-95.19,77.408-172.641,172.582-172.706c0.029,0,0.057,0,0.071,0c0.139,0.002,0.281,0.002,0.422,0h0.064
	c95.174,0.066,172.591,77.516,172.591,172.706c0,0.272,0.006,0.544,0.019,0.816l0.017,0.343c0.285,5.558,1.412,39.023-9.434,79.541
	l33.732,9.038c0.069,0.019,0.135,0.046,0.204,0.068c11.702-43.594,11.01-79.884,10.497-90.251
	c-0.053-25.12-4.587-49.207-12.843-71.503"/>
<path style="fill:#547475;" d="M259.093,8.881l-0.122,0.002c-0.071-0.002-0.141-0.002-0.194-0.002
	c-61.035,0-116.003,26.462-154.045,68.512l24.804,24.804c31.637-35.694,77.79-58.245,129.117-58.279c0.029,0,0.057,0,0.071,0
	c0.139,0.002,0.281,0.002,0.422,0h0.064c51.327,0.033,97.483,22.588,129.123,58.284l24.806-24.808
	C375.096,35.342,320.13,8.881,259.093,8.881z"/>
<g>
	<path style="fill:#231F20;" d="M474.516,318.118c-0.517-6.299-3.719-12.103-8.751-15.89c10.274-41.739,9.652-76.082,9.16-86.262
		c-0.074-25.461-4.565-50.391-13.346-74.104c-1.551-4.19-6.209-6.329-10.398-4.778c-4.19,1.551-6.33,6.207-4.778,10.398
		c8.138,21.979,12.291,45.097,12.34,68.711c0,0.128,0.003,0.256,0.01,0.383c0.457,9.219,1.104,40.905-8.236,79.901l-18.317-4.909
		c8.99-37.882,8.026-68.186,7.719-74.183l-0.016-0.324c-0.008-0.147-0.011-0.292-0.011-0.439c0-43.162-15.221-82.841-40.573-113.966
		l13.439-13.44c8.997,10.876,16.95,22.8,23.642,35.682c2.06,3.967,6.946,5.511,10.91,3.45c3.966-2.06,5.511-6.945,3.45-10.91
		c-8.529-16.417-19.12-31.594-31.42-45.23c-0.068-0.081-0.129-0.166-0.201-0.245c-0.172-0.19-0.348-0.371-0.52-0.56
		c-0.887-0.974-1.784-1.938-2.69-2.895c-0.539-0.571-1.083-1.135-1.628-1.699c-0.958-0.992-1.917-1.981-2.894-2.954
		c-0.303-0.302-0.613-0.596-0.917-0.895c-3.709-3.654-7.551-7.175-11.519-10.557c-0.127-0.109-0.255-0.218-0.382-0.327
		c-8.136-6.905-16.779-13.248-25.907-18.919C340.353,13.071,303.349,1.975,265.296,0.885c-0.355-0.011-0.711-0.019-1.067-0.028
		c-1.71-0.041-3.422-0.068-5.137-0.068c-0.111,0.001-0.227,0-0.316,0c-1.902,0-3.798,0.026-5.688,0.076
		c-0.015,0-0.031,0.001-0.046,0.001c-42.895,1.126-82.727,14.864-115.928,37.621c-0.069,0.047-0.137,0.095-0.206,0.142
		c-1.305,0.897-2.601,1.806-3.886,2.731c-0.534,0.383-1.064,0.774-1.595,1.161c-0.792,0.58-1.581,1.164-2.365,1.755
		c-0.861,0.648-1.717,1.304-2.569,1.967c-0.41,0.318-0.818,0.639-1.226,0.96c-1.132,0.891-2.255,1.794-3.369,2.708
		c-0.068,0.055-0.135,0.111-0.202,0.167c-8.129,6.688-15.819,13.986-22.965,21.885c-0.2,0.22-0.381,0.45-0.551,0.685
		c-34.178,38.079-55.071,88.314-55.236,143.318c-0.477,9.882-1.096,42.931,8.457,83.369c-4.649,1.819-8.522,5.123-11.054,9.508
		c-1.668,2.888-2.617,6.049-2.875,9.278C10.202,327.2-5.662,356.167,1.874,384.287l20.864,77.862
		c3.788,14.14,12.856,25.959,25.534,33.278c8.444,4.877,17.816,7.367,27.312,7.366c3.681,0,7.383-0.385,11.055-1.139
		c4.1,5.931,10.924,9.558,18.199,9.558c1.888,0,3.806-0.245,5.715-0.755l40.608-10.882c11.773-3.155,18.787-15.3,15.633-27.074
		l-3.791-14.145c-1.157-4.317-5.594-6.879-9.911-5.721c-4.317,1.157-6.878,5.594-5.721,9.911l3.79,14.143
		c0.845,3.155-1.035,6.409-4.19,7.256l-40.607,10.881c-3.154,0.845-6.408-1.034-7.254-4.188l-0.145-0.539
		c0-0.002-0.001-0.005-0.001-0.008s-0.002-0.005-0.002-0.008L53.924,321.994c-0.002-0.006-0.002-0.013-0.004-0.019
		c-0.001-0.007-0.004-0.012-0.005-0.018l-0.141-0.529c-0.41-1.529-0.2-3.124,0.591-4.494c0.791-1.37,2.068-2.35,3.598-2.76
		l27.03-7.243l12.184-3.264c0.005-0.001,0.01-0.003,0.015-0.004l1.378-0.369c3.155-0.844,6.41,1.035,7.257,4.188l34.712,129.553
		c1.155,4.317,5.593,6.88,9.911,5.721c4.317-1.156,6.878-5.594,5.721-9.911l-34.712-129.555
		c-2.545-9.486-10.926-15.867-20.243-16.345c-8.253-35.283-7.377-63.228-7.1-68.72l0.023-0.413c0.018-0.397,0.027-0.794,0.027-1.191
		c0-42.095,15.901-80.553,42.008-109.696c0.568-0.634,1.141-1.262,1.718-1.887c0.381-0.412,0.763-0.825,1.148-1.234
		c0.599-0.635,1.204-1.262,1.813-1.887c0.365-0.374,0.727-0.751,1.095-1.122c0.696-0.702,1.4-1.394,2.108-2.081
		c0.284-0.276,0.564-0.557,0.851-0.832c29.43-28.214,68.359-44.63,109.213-45.806c0.074-0.002,0.149-0.006,0.224-0.009
		c1.454-0.04,2.912-0.06,4.371-0.061c0.026,0,0.051,0,0.076,0l0.149,0.001l0.27-0.002c1.455,0.001,2.91,0.022,4.361,0.061
		c0.14,0.003,0.279,0.012,0.419,0.016c42.271,1.264,82.518,18.882,112.263,49.032c0.013,0.013,0.026,0.026,0.038,0.039
		c0.98,0.994,1.946,2.001,2.902,3.022c0.097,0.104,0.193,0.207,0.289,0.311c0.886,0.949,1.761,1.911,2.625,2.884
		c25.865,29.089,41.606,67.368,41.606,109.249c0,0.397,0.01,0.794,0.028,1.212l0.018,0.36c0.286,5.593,1.172,33.712-7.205,69.218
		c-1.534-0.331-3.095-0.506-4.659-0.506c-9.982,0-18.76,6.739-21.346,16.387l-45.336,169.206
		c-1.529,5.703-0.744,11.662,2.207,16.775c2.952,5.113,7.719,8.77,13.424,10.299l40.609,10.882c1.872,0.503,3.799,0.756,5.728,0.756
		c0,0,0,0,0.001,0c7.402,0,14.136-3.711,18.178-9.56c3.629,0.744,7.315,1.13,11.001,1.13c24.742,0,46.499-16.708,52.906-40.631
		l20.864-77.863C517.663,356.163,501.792,327.192,474.516,318.118z M388.543,90.545c-0.347-0.356-0.703-0.701-1.053-1.054
		c-0.388-0.393-0.779-0.783-1.172-1.172c-0.642-0.637-1.288-1.268-1.939-1.893c-0.432-0.415-0.866-0.829-1.303-1.24
		c-0.614-0.578-1.229-1.154-1.85-1.723c-0.508-0.466-1.021-0.928-1.534-1.389c-0.555-0.496-1.109-0.993-1.669-1.482
		c-0.623-0.545-1.252-1.082-1.882-1.619c-0.455-0.387-0.911-0.777-1.37-1.16c-0.792-0.66-1.591-1.311-2.394-1.958
		c-0.303-0.244-0.603-0.49-0.907-0.731c-1.035-0.823-2.08-1.633-3.133-2.435c-0.074-0.056-0.148-0.114-0.222-0.17
		c-29.182-22.129-65.258-35.628-104.395-36.63c-1.522-0.04-3.047-0.06-4.574-0.061c-0.04,0-0.259,0-0.299,0.001
		c-0.041-0.001-0.158-0.003-0.2-0.001c-1.524,0.001-3.047,0.022-4.567,0.061c-40.727,1.043-78.144,15.636-107.92,39.416
		c-0.035,0.027-0.068,0.055-0.102,0.082c-1.073,0.859-2.137,1.728-3.19,2.61c-0.24,0.201-0.476,0.404-0.714,0.604
		c-0.847,0.717-1.69,1.439-2.524,2.172c-0.382,0.334-0.761,0.674-1.14,1.012c-0.686,0.613-1.37,1.23-2.048,1.854
		c-0.476,0.438-0.948,0.88-1.42,1.324c-0.575,0.542-1.148,1.084-1.717,1.633c-0.534,0.515-1.064,1.034-1.591,1.556
		c-0.503,0.497-1.002,0.997-1.5,1.501c-0.296,0.299-0.598,0.591-0.892,0.892l-13.299-13.299c1.697-1.738,3.416-3.454,5.174-5.129
		c0.052-0.05,0.104-0.098,0.155-0.147c1.05-0.998,2.111-1.983,3.183-2.957c0.208-0.19,0.418-0.378,0.627-0.565
		c0.916-0.826,1.84-1.644,2.771-2.454c0.43-0.373,0.863-0.742,1.297-1.112c0.72-0.615,1.441-1.227,2.169-1.831
		c0.738-0.612,1.481-1.216,2.227-1.816c0.433-0.348,0.863-0.699,1.299-1.045c1.177-0.931,2.361-1.852,3.557-2.757
		c0.011-0.009,0.022-0.017,0.033-0.025c34.423-25.996,76.654-40.429,120.219-40.43c0.127,0.004,0.252,0.005,0.377,0.002l0.053-0.001
		c0.002,0,0.004,0,0.006,0c2.038,0.001,4.07,0.045,6.097,0.108c0.745,0.023,1.489,0.054,2.233,0.086
		c1.226,0.051,2.448,0.119,3.669,0.191c0.969,0.059,1.939,0.112,2.905,0.186c0.378,0.028,0.752,0.068,1.129,0.098
		c47.787,3.908,92.93,25.058,126.666,59.577L388.543,90.545z M56.361,481.412c-8.933-5.157-15.323-13.486-17.994-23.451
		l-20.864-77.863c-5.11-19.067,5.051-38.685,22.951-45.84l40.71,151.929C72.616,487.432,63.958,485.798,56.361,481.412z
		 M77.979,216.623c0,0.147-0.003,0.292-0.006,0.372l-0.022,0.38c-0.298,5.886-1.236,35.537,7.375,72.715l-8.151,2.184l-10.174,2.725
		c-8.977-38.333-8.333-69.385-7.885-78.423c0.006-0.127,0.01-0.255,0.01-0.383c0.101-48.185,17.394-92.427,46.042-126.917
		l13.378,13.378C93.2,133.778,77.979,173.459,77.979,216.623z M407.176,495.028c-0.516,0-1.034-0.068-1.541-0.204l-40.608-10.882
		c-1.53-0.41-2.807-1.39-3.598-2.76c-0.79-1.37-1.001-2.965-0.591-4.494l45.338-169.206c0.694-2.586,3.044-4.393,5.715-4.393
		c0.516,0,1.034,0.068,1.541,0.204l6.852,1.836c0.009,0.002,0.016,0.005,0.024,0.008l33.515,8.98
		c0.064,0.021,0.123,0.04,0.169,0.054c0.037,0.011,0.076,0.014,0.112,0.025c3.115,0.874,4.963,4.101,4.125,7.232l-0.136,0.509
		c-0.004,0.014-0.01,0.027-0.013,0.041l-34.995,130.608l-10.195,38.051C412.196,493.222,409.847,495.028,407.176,495.028z
		 M494.495,380.098l-20.864,77.864c-4.517,16.86-19.846,28.636-37.276,28.636c-1.844,0-3.69-0.134-5.524-0.4l40.715-151.951
		C489.447,341.4,499.604,361.029,494.495,380.098z"/>
	<path style="fill:#231F20;" d="M365.922,304.62c-4.318-1.158-8.754,1.405-9.911,5.721l-37.188,138.791
		c-1.157,4.317,1.405,8.754,5.721,9.911c0.701,0.189,1.407,0.278,2.1,0.278c3.573,0,6.842-2.384,7.81-6l37.188-138.791
		C372.799,310.213,370.238,305.775,365.922,304.62z"/>
	<path style="fill:#231F20;" d="M155.99,310.342c-1.155-4.318-5.598-6.88-9.91-5.722c-4.318,1.155-6.879,5.593-5.722,9.91
		l37.184,138.791c0.968,3.616,4.238,6.001,7.81,6.001c0.694,0,1.398-0.09,2.098-0.278c4.318-1.155,6.879-5.593,5.722-9.91
		L155.99,310.342z"/>
</g>
</svg>