<?xml version="1.0" encoding="UTF-8"?> <svg xmlns="http://www.w3.org/2000/svg" xmlns:xlink="http://www.w3.org/1999/xlink" xmlns:xodm="http://www.corel.com/coreldraw/odm/2003" xml:space="preserve" width="30px" height="30px" version="1.1" style="shape-rendering:geometricPrecision; text-rendering:geometricPrecision; image-rendering:optimizeQuality; fill-rule:evenodd; clip-rule:evenodd" viewBox="0 0 184.81 268.65"> <defs> <style type="text/css"> .fil0 {fill:#070605} .fil2 {fill:#194734} .fil3 {fill:#86BC40} .fil1 {fill:white} </style> </defs> <g id="Слой_x0020_1"> <metadata id="CorelCorpID_0Corel-Layer"></metadata> <path class="fil0" d="M119.95 182.93l2.17 -6.93c-11.29,13.1 -11.61,8.35 -22.9,17.81 -2.57,2.14 -4.38,5.21 -6.84,7 -3.48,-3.23 -3.06,-3.46 -7.49,-6.98 -2.71,-2.16 -5.42,-4.07 -8.51,-6.13 -6.77,-4.51 -9.21,-12.12 -12.26,-16.94 -0.38,6.33 -0.15,3.62 -3.03,5.45 -0.05,2.73 1.7,4.24 2.49,6.39 -7.99,-3.72 -12.98,-22.33 -13.26,-32.12l-1.02 2.64c-0.25,1 -0.5,2.07 -0.73,3.02 -0.45,1.78 -0.82,3.78 -1.5,5.28 -3.41,-10.85 0.09,-29.94 5.19,-37.49 0.18,6.2 0.21,11.29 1.4,17.08 0.84,4.1 2.73,11.02 5.38,13.38l4.33 -14.27c0.67,8.88 2.78,17.61 6.32,24.58 4.15,8.17 6.25,9.65 11.69,15.08 0.9,0.89 1.31,0.99 2.16,1.7l-3.01 -13.87c6.19,4.41 10.51,12.6 13.64,11.04 3.14,-3.17 1.21,-7.23 1.88,-11.83 0.45,2 3.05,5.66 5.85,4.68 2.2,-0.77 3.64,-4.57 4.78,-6.57l-4.81 14.3c1.18,-0.44 9.18,-8.38 10.5,-9.87 3.49,-3.93 5.9,-8 7.48,-13.46 1.42,-4.94 0.66,-7.54 1.25,-12.51l4.29 13.92c5,-4.69 6.03,-21.05 6.99,-26.98l0.71 -1.88c0.62,1.77 2.63,4.36 3.67,6.82 2.37,5.56 3.41,11.8 2.99,17.96l-1.71 9.1 -3.97 -12.61c-0.63,6.51 -1.39,14.66 -3.82,19.95 -1.74,3.79 -7.97,12 -10.3,13.26zm-51.2 -40.16c-1.34,-4.67 5.97,-7.57 9.18,-9.11 10.53,-5.05 17.12,-6.62 28.18,0.91 9.65,6.58 13.75,8.24 -1.32,18.84 -4.35,3.06 -6.83,5.37 -13.93,4.67 -7.25,-0.72 -14.57,-4.63 -18.42,-9.48 -0.98,-1.23 -3.13,-3.91 -3.69,-5.83zm71.74 -32.19c0,5.46 0.39,9.99 1.89,14.89 0.79,2.56 3.49,9.06 6.34,9.27 1.19,-8.74 2.66,-11.82 0.68,-19.9 3.6,4.93 9.52,11.24 7.01,20.38 -2.09,7.6 -9.38,10.5 -5.57,20.48 -2.32,-1.71 -6.97,-11.26 -8.53,-14.27 -3.24,-6.26 -4.69,-11.58 -4.69,-19.56 0,-8.65 2.05,-21.02 4.48,-28.5 -0.04,3.92 -1.61,9.74 -1.61,17.21zm-32.83 -31.75c8.56,0.34 6.66,-2.21 12.41,-3.54 -0.22,8.93 -11.1,6.97 -12.17,6.49l-0.24 -2.95zm-44.63 -3.54c5.9,1.19 3.73,3.83 12.59,3.54 -0.01,2.12 0.01,1.83 -0.68,3.27 -1.93,0.49 -5.99,-0.07 -8.05,-0.7 -2.72,-0.84 -3.45,-2.88 -3.86,-6.11zm104.85 53.01c-1.94,-0.62 -10.25,-11.74 -12.2,-14.87 -6.68,-10.76 -5.23,-11.8 -4.2,-21.22 2.05,-18.88 -7.49,-26.32 -18.5,-35.05 4.5,0.53 11.51,4.75 14.4,6.89 8.36,6.18 14.06,14.04 17.41,24.38 2.76,8.54 3.42,14.2 2.79,22.6 -1.88,-5.65 -1.11,-7.27 -4.51,-14.18 -1.46,-2.96 -1.48,-3.05 -3.08,-3.66 -2.95,8.2 -1.54,11.35 1.2,19.32 0.95,2.78 5.56,14.6 6.69,15.79zm-151.3 -12.04c-1.27,-24.03 3,-37.86 20.01,-51.11 2.83,-2.2 11.59,-7.41 15.81,-7.99 -0.96,1.06 -2.39,2.1 -3.59,3.07 -0.8,0.63 -0.96,0.95 -1.69,1.64 -0.63,0.61 -1.12,0.94 -1.82,1.53 -19.35,16.33 -7.19,30.43 -16.02,50.04 -1.96,4.35 -8.36,13.88 -10.97,14.89 1.42,-1.6 5.47,-12.85 6.38,-16.17 1.53,-5.54 2.26,-14.7 1.34,-20.4l-6.45 10.71c-2.34,5.08 -2.02,8.32 -3,13.79zm48.77 -67.54c2.82,-2.25 10.05,-3.57 14.58,-3.24 5.13,0.38 8.36,2.23 12.17,4.89 0.62,0.43 0,0.1 0.8,0.52 4.35,-2.21 6.29,-3.49 12.1,-3.95 4.75,-0.38 9.97,0.47 14.03,2 -1.09,0.59 -1.62,0.63 -2.85,0.88l-2.55 1.45 5.58 3.33c3.99,2.5 14.84,9.27 13.02,15.06 -0.71,2.26 -3.06,3.71 -5.89,3.85 -3.46,0.18 -4.49,-1.67 -8.56,-0.78 -4.47,0.98 -7.97,3.93 -11.18,1.57 -1.49,-1.09 -0.96,-1.52 -2.59,-2.64 0.04,1.91 0.49,3.59 0.34,5.3 -0.92,10.14 3.46,3.86 1.15,14.28 1.64,-2.06 2.16,-4.8 4.14,-6.14 2.15,-1.45 6.15,-0.17 8.9,-0.62 6.71,-1.1 6.36,-7.99 14.47,-5.22 3.08,1.06 4.57,2.02 5.08,5.4 0.94,6.35 -1.01,11.66 -6.14,14.81 -3.6,2.22 -2.16,4.02 -3.39,7.22 -1.57,-2.66 -2.72,-5.27 -4.13,-7.67l-0.74 7.65 -7.24 -0.95c2.3,3.91 8.72,10.92 7.92,19.09 -1.08,11.07 -12.71,14.17 -23.79,3.17 -0.95,-0.95 -5.99,-6.36 -6.21,-7.53 -1.12,-6.12 10.58,-4.53 12.37,-14.64 -12.95,4.03 -17.85,2.07 -30.7,-0.05 0.6,9.47 10.41,6.14 12.92,13.82 1.13,3.45 -1.49,4.47 -5.28,7.28 -2.58,1.92 -5.11,3.61 -7.91,5.48 -16.06,10.76 -17.55,-10.83 -11.7,-22.16 0.78,-1.52 1.91,-2.85 2.44,-4.31l-5.73 0.95 -0.38 -8c-1.9,1.55 -2.93,4.68 -4.32,6.63 -2.25,-1.94 -15.53,-19.72 -4.6,-26.25 6.78,-4.04 7.42,3.97 11.77,5.86 4.56,1.99 10.27,-4.14 14.4,4.08 0.09,-0.11 0.19,-0.44 0.23,-0.37l0.4 -0.72c0.11,-0.25 0.24,-0.72 0.36,-1.01 1.2,-3.14 3.38,-1.77 3.11,-5.69 -0.1,-1.43 -0.81,-2.79 -0.93,-4.63 -0.13,-1.93 0.03,-3.87 -0.11,-5.82 -6.46,8.14 -6.62,2.48 -12.88,2.27 -8.3,-0.27 -14.73,3.85 -15.68,-1.22 -1.46,-7.75 7.58,-16.11 15.15,-19.15l3.37 -1.57c-1.77,-1.89 -3.33,-1.52 -5.32,-2.51zm30.7 -12.77c1.14,-5.67 4.29,-8.8 8.33,-11.28 3.33,-2.05 10.42,-4.66 14.88,-4.63 -5.71,1.18 -11.97,4.4 -13.77,8.22 9.55,-0.86 13.51,-2.39 22.88,1.3 6.23,2.45 15.1,10.8 18.3,15.13l8.38 11.68c2.36,3.16 9.74,11.11 13.28,12.61 -17.74,-7.82 -19.88,-15.86 -31.11,-26.55 -9.86,-9.38 -23.13,-15.08 -36.64,-8.6 -1.35,0.64 -3.5,2.04 -4.53,2.12zm-33.02 -16.07c1.85,-0.97 26.73,-2.53 27.13,17.26 -1.99,-0.59 -3.72,-1.58 -5.57,-2.27 -1.68,-0.62 -3.6,-1.28 -5.39,-1.73 -17.2,-4.35 -28.64,4.91 -38.26,17.55 -4.88,6.42 -16.09,15.64 -24.88,18.36 0.94,-0.95 2.43,-1.93 3.67,-2.79 12.07,-8.37 12.7,-12.29 20.37,-24.77 3.13,-5.09 6.97,-10.56 12.73,-13.17 3.15,-1.42 6.63,-2.24 10.37,-2.59 4.7,-0.44 8.62,0.54 12.4,0.36 -6,-6.24 -8.57,-4.17 -12.57,-6.21zm29.87 -4.83c-1.2,-1.04 -2.34,-2.07 -3.67,-3.2 -1.48,-1.26 -2.41,-2.47 -3.81,-3.7 -1.37,-1.2 -2.81,-2.22 -4.01,-3.54 -1.43,-1.57 -2.37,-2.57 -4.02,-3.53l3.08 9.52c-9.22,-2.38 -13.95,-3.5 -24.27,-3.5 0.84,1.36 1.84,1.8 3.01,3 1.76,1.8 2.42,1.57 3.3,3.33 -8.6,-0.6 -20.24,0.52 -25.21,5.55l10.85 1.27c-3.46,2.45 -7.93,3.52 -15.46,9.22 -11.93,9.03 -11.26,17.28 -18.44,31.72 -1.25,2.54 -3.18,5.87 -4.78,7.77 -3.64,4.33 -5.32,4.3 -6.74,5.68 5.14,2.98 9.52,1.1 14.1,-0.28 -0.68,1.82 -2.89,4.61 -4.02,6.71 -4.29,8.02 -7.25,17.77 -5.41,27.23 2.09,10.75 15.86,27.98 -7.4,24.24 1.71,3.35 7.57,4.03 10.97,4.03 3.09,0 5.34,-0.87 8.1,-1.31 3,7.23 10.97,13.03 10.29,25.48l-1.1 10.2 2.28 -2.75c3.59,-4.81 4.18,-7.89 5.81,-10.31 1.98,5.62 3.64,11.77 6.96,16.05 0.56,-1.59 0.58,-3.85 1.37,-4.97 0.37,3.27 6,11.23 7.86,13.33 4.21,4.74 6.74,5.4 13.65,8.51 7.44,3.35 18.63,8.06 24.3,14.15 0.88,0.95 1.67,2.12 2.73,2.93 2.21,-3.95 6.2,-8.55 10.2,-10.69 6.36,-3.39 23.57,-2.26 33.99,-25.77 0.06,-0.13 0.27,-0.66 0.4,-0.9l0.77 -1.2 0.48 6.42c5.26,-2.69 9.28,-15.1 10.58,-17.19 0.23,6.03 3.68,9.9 7.63,11.95 -2.24,-11.64 -2.73,-14.84 1.9,-25.43 1.68,-3.84 3.21,-8.19 4.89,-11.81 8.42,8.33 19.72,2.5 20.75,-0.18 -16.08,-0.21 -13.39,-5.44 -10.34,-15.32 6.54,-21.18 0.72,-24.18 -3.27,-41.73 6.54,2.02 5.58,1.86 12.01,1.11 -5.43,-4.5 -9.3,-7.09 -13.02,-13.74 -3.09,-5.53 -4.04,-14.06 -6.99,-20.2 -3.26,-6.79 -6.7,-10.94 -12.56,-14.2 -5.52,-3.05 -13.01,-5.94 -18.85,-8.34 4.69,-2.15 12.19,-1.87 17.54,-1.27 -8.98,-7.3 -15.53,-6.23 -24.36,-6.92l5.98 -3.88c0.98,-0.81 0.33,-0.14 1.01,-1.07 -12.79,0.86 -10.76,-0.38 -19,-0.25 -3.5,0 -8.31,1.76 -9.4,3.62l2.99 -10.89c-3.03,1.32 -9.31,7.18 -11.35,10.08 -1.77,2.53 -1.14,2.65 -2.3,4.97z"></path> <path class="fil1" d="M117.78 72.73c4.07,-0.89 5.1,0.96 8.56,0.78 2.83,-0.14 5.18,-1.59 5.89,-3.85 1.82,-5.79 -9.03,-12.56 -13.02,-15.06l-5.58 -3.33 2.55 -1.45c1.23,-0.25 1.76,-0.29 2.85,-0.88 -4.06,-1.53 -9.28,-2.38 -14.03,-2 -5.81,0.46 -7.75,1.74 -12.1,3.95 -0.8,-0.42 -0.18,-0.09 -0.8,-0.52 -3.81,-2.66 -7.04,-4.51 -12.17,-4.89 -4.53,-0.33 -11.76,0.99 -14.58,3.24 1.99,0.99 3.55,0.62 5.32,2.51l-3.37 1.57c-7.57,3.04 -16.61,11.4 -15.15,19.15 0.95,5.07 7.38,0.95 15.68,1.22 6.26,0.21 6.42,5.87 12.88,-2.27 0.14,1.95 -0.02,3.89 0.11,5.82 0.12,1.84 0.83,3.2 0.93,4.63 0.27,3.92 -1.91,2.55 -3.11,5.69 -0.12,0.29 -0.25,0.76 -0.36,1.01l-0.4 0.72c-0.04,-0.07 -0.14,0.26 -0.23,0.37 -4.13,-8.22 -9.84,-2.09 -14.4,-4.08 -4.35,-1.89 -4.99,-9.9 -11.77,-5.86 -10.93,6.53 2.35,24.31 4.6,26.25 1.39,-1.95 2.42,-5.08 4.32,-6.63l0.38 8 5.73 -0.95c-0.53,1.46 -1.66,2.79 -2.44,4.31 -5.85,11.33 -4.36,32.92 11.7,22.16 2.8,-1.87 5.33,-3.56 7.91,-5.48 3.79,-2.81 6.41,-3.83 5.28,-7.28 -2.51,-7.68 -12.32,-4.35 -12.92,-13.82 12.85,2.12 17.75,4.08 30.7,0.05 -1.79,10.11 -13.49,8.52 -12.37,14.64 0.22,1.17 5.26,6.58 6.21,7.53 11.08,11 22.71,7.9 23.79,-3.17 0.8,-8.17 -5.62,-15.18 -7.92,-19.09l7.24 0.95 0.74 -7.65c1.41,2.4 2.56,5.01 4.13,7.67 1.23,-3.2 -0.21,-5 3.39,-7.22 5.13,-3.15 7.08,-8.46 6.14,-14.81 -0.51,-3.38 -2,-4.34 -5.08,-5.4 -8.11,-2.77 -7.76,4.12 -14.47,5.22 -2.75,0.45 -6.75,-0.83 -8.9,0.62 -1.98,1.34 -2.5,4.08 -4.14,6.14 2.31,-10.42 -2.07,-4.14 -1.15,-14.28 0.15,-1.71 -0.3,-3.39 -0.34,-5.3 1.63,1.12 1.1,1.55 2.59,2.64 3.21,2.36 6.71,-0.59 11.18,-1.57z"></path> <path class="fil1" d="M119.95 182.93c2.33,-1.26 8.56,-9.47 10.3,-13.26 2.43,-5.29 3.19,-13.44 3.82,-19.95l3.97 12.61 1.71 -9.1c0.42,-6.16 -0.62,-12.4 -2.99,-17.96 -1.04,-2.46 -3.05,-5.05 -3.67,-6.82l-0.71 1.88c-0.96,5.93 -1.99,22.29 -6.99,26.98l-4.29 -13.92c-0.59,4.97 0.17,7.57 -1.25,12.51 -1.58,5.46 -3.99,9.53 -7.48,13.46 -1.32,1.49 -9.32,9.43 -10.5,9.87l4.81 -14.3c-1.14,2 -2.58,5.8 -4.78,6.57 -2.8,0.98 -5.4,-2.68 -5.85,-4.68 -0.67,4.6 1.26,8.66 -1.88,11.83 -3.13,1.56 -7.45,-6.63 -13.64,-11.04l3.01 13.87c-0.85,-0.71 -1.26,-0.81 -2.16,-1.7 -5.44,-5.43 -7.54,-6.91 -11.69,-15.08 -3.54,-6.97 -5.65,-15.7 -6.32,-24.58l-4.33 14.27c-2.65,-2.36 -4.54,-9.28 -5.38,-13.38 -1.19,-5.79 -1.22,-10.88 -1.4,-17.08 -5.1,7.55 -8.6,26.64 -5.19,37.49 0.68,-1.5 1.05,-3.5 1.5,-5.28 0.23,-0.95 0.48,-2.02 0.73,-3.02l1.02 -2.64c0.28,9.79 5.27,28.4 13.26,32.12 -0.79,-2.15 -2.54,-3.66 -2.49,-6.39 2.88,-1.83 2.65,0.88 3.03,-5.45 3.05,4.82 5.49,12.43 12.26,16.94 3.09,2.06 5.8,3.97 8.51,6.13 4.43,3.52 4.01,3.75 7.49,6.98 2.46,-1.79 4.27,-4.86 6.84,-7 11.29,-9.46 11.61,-4.71 22.9,-17.81l-2.17 6.93z"></path> <path class="fil2" d="M56.4 224.6c3.67,-0.81 3.3,-1.33 6.94,0.39 8.47,3.99 -8.85,11.66 -9.52,11.85l2.58 -12.24zm-39.27 -3.34c-2.1,1.11 -3.29,2.72 -5.45,4.05l1.76 -1.96c0.95,-0.83 0.68,-0.24 1.14,-1.43 -1.46,0.56 -2.93,1.98 -4.07,3.59 -1.83,2.61 -6.06,3.75 -7.09,15.47 -1.06,11.97 0.43,17.41 12.15,18.18 0,0.04 -1.77,0.39 -0.18,1.63 2.77,2.14 8.06,-1.38 10.23,-1.66l-0.08 6.46c2.49,-0.09 1.35,-0.41 2.22,-1.86 0.1,1.84 0.43,4.54 2.64,2.25 2.57,-2.65 2.83,-2.85 3,-7.02 0.08,-2.11 0.68,-2.45 0.66,-4.39 -0.02,-1.78 2.12,-10.89 3.84,-12.13 1.24,-0.89 3.04,-0.84 4.3,-1.44 -0.79,-0.65 -0.2,-0.43 -1.55,-0.64l-3.52 0.37c0.33,-0.84 7.07,-1.32 8.06,-1.35 -0.69,3.47 -4.08,16.28 -2.12,19.26 0.99,1.53 2.43,3.34 3.85,0.54 1.16,1.9 -0.22,1.98 3.09,2.04 -0.31,-3.91 -0.42,-1.93 0.69,-4.31 1.67,-3.56 -1.03,-9.05 2.07,-12.21l0.61 0.7c0.05,0.07 0.13,0.18 0.18,0.26 0.13,0.2 0.32,0.58 0.44,0.82 0.33,0.64 0.6,1.24 0.95,1.96 0.67,1.35 1.18,2.27 1.9,3.52 2.79,4.83 6.05,8.56 10.12,12.45 3.67,3.49 3.33,2.56 4.9,3.17 1.24,0.49 -0.1,0.11 1.41,1.07l3.56 -1.58c-0.39,-1.75 -0.58,-1.95 -1.5,-3.09l1.49 0c-1,-2.69 -2.33,-2.95 -4.27,-4.74 -2.24,-2.07 -6.05,-7.84 -7.98,-10.42 -1.51,-2.02 -3.27,-2.26 -3.29,-5.22 5.83,-3.47 6.52,-1.2 10.55,-10.32 0.43,-0.98 0.49,-1.3 0.16,-1.83 -1.11,0.5 -0.13,-0.11 -0.71,0.86 -1.7,2.86 -3.5,3.36 -5.36,5.54 1.78,-2.98 4.99,-5.57 5.02,-9.37 0.03,-5.18 -2.07,-7.54 -5.66,-9.21 -2.84,-1.32 -9.18,-2.56 -12.67,-1.41 -1.3,0.42 -8.48,3.74 -9.15,5.16 0.81,1.16 1.03,0.93 1.95,1.45 -1.7,0.31 -1.19,-0.05 -1.88,1.06 0.92,0.32 0.9,0.06 2.28,-0.2l-0.72 1.59c-0.04,-0.06 -0.08,0.3 -0.11,0.44l3.07 0c-0.04,1.37 -0.87,2.28 -0.89,4.86 0.1,-0.06 0.21,-0.16 0.27,-0.21 0.05,-0.05 0.18,-0.15 0.25,-0.22l-0.07 3.82c-0.56,-1.34 0.1,-1.29 -0.7,-2.46 -1.05,1.86 -0.23,4.59 -2.51,4.84 -0.25,-0.7 0.24,-0.34 0.31,-1.96 -0.99,-0.69 -2.26,-1.27 -3.65,-1.72 -3.57,-1.17 -3.52,-0.48 -4.17,0.16l2.3 0.83 -3.15 0.41 -0.1 -0.9c-0.07,-0.32 0.62,-0.5 -1.15,-0.5l-0.1 1.67c-2.73,0.14 -5.21,0.56 -7.86,0.81 -3.96,0.38 -11.07,-2.12 -6.08,3.61 1.32,1.51 2.19,1.05 4.55,0.96l-1.69 0.63c-1.55,0.35 -2.9,0.36 -3.83,1.51 0.31,1.12 0.4,0.98 1.33,1.57 1.12,0.72 -0.34,-0.08 0.56,0.32 0.25,0.11 0.12,0.15 1.01,0.32l2.32 0.07c-1.19,1.57 -2.36,2.78 -3.73,4.28 -0.85,0.95 -3.6,2.92 -3.98,3.74l2.78 -1.61c0.87,-0.56 1.76,-1.32 2.36,-1.82l4.29 -4.28c0.05,-0.16 0.19,-0.15 0.3,-0.21 -1.71,3.05 -6.84,9.16 -11.53,9.33l1.27 -1.52c-8.51,-4.18 -6.85,-12.58 -1.85,-19.62 10.01,-14.11 13,-4.62 18.27,-4.43 0.09,-1.16 -0.3,-2.33 0.35,-3.21 1.34,1.5 0.18,1.6 1.94,2.19 -1.21,-7.14 -3.24,-9.1 -10.08,-9.75 -0.1,-0.01 -0.21,-0.03 -0.33,-0.04l-4.44 0.16c-2.28,0.29 -4.51,0.82 -5.29,2.55l1.79 -0.28z"></path> <path class="fil1" d="M68.75 142.77c0.56,1.92 2.71,4.6 3.69,5.83 3.85,4.85 11.17,8.76 18.42,9.48 7.1,0.7 9.58,-1.61 13.93,-4.67 15.07,-10.6 10.97,-12.26 1.32,-18.84 -11.06,-7.53 -17.65,-5.96 -28.18,-0.91 -3.21,1.54 -10.52,4.44 -9.18,9.11z"></path> <path class="fil2" d="M178.69 223.28c-1.36,-0.94 -1.3,0 -0.73,-1.64 0.63,-1.8 0.39,0.37 1.02,-1.54 -1.06,-0.6 -2.25,-1.34 -3.32,-1.43l-3.17 -0.49c-1.55,8.3 -4.82,17.39 -5.61,26.36 -0.63,-1.06 -0.62,-2.21 -1.37,-3.41 -2.22,-3.55 -6.8,-17.01 -8.6,-21.38 -1.89,0.18 -1.94,1.26 -2.06,1.04 -0.05,-0.08 -0.16,0.17 -0.24,0.25 -1.5,-2 -3.81,-4.15 -7.32,-2.16 -2.61,3.53 -8.42,32.97 -5.91,37.91 0.27,-0.03 1.17,0.25 1.49,-1.14 0.04,-0.18 0.11,-0.23 0.19,-0.34 0.29,4.19 0.76,3.34 1.25,3.66 1.53,-0.58 2.06,-3.15 4.51,-2.18 0.62,-5.53 2.09,-21.22 3.99,-25.64 1.55,2.02 5.04,11.2 6.33,14.25 2.99,7.04 4.27,8.96 4.6,16.08 0.53,0.26 2.29,1.04 2.89,1.25 0.42,-1.83 1.05,-0.83 2.81,-2.03 2.27,-1.54 1.16,-6.96 3.73,-10.19 -0.1,2.31 -1.4,6.32 -0.44,7.97 1.16,-0.44 0.73,0.21 1.11,-1.82l5.02 -27.08c0.42,-1.65 0.78,-3.02 1.28,-4.57 0.48,-1.48 0.96,-3.3 0.12,-4.43 -1.72,0.69 -0.37,0.99 -1.57,2.7z"></path> <path class="fil2" d="M88.65 225.53c0.09,-0.07 0.23,-0.13 0.31,-0.17l10.99 -0.83c4.01,-0.14 6.38,-0.59 6.68,-4.85 -1.86,-1.77 -2.7,-1.97 -5.79,-1.81 -4.53,0.24 -17.67,0.65 -20.48,-0.03 -0.07,3.57 -1.07,4.91 -0.65,8.94 -1.31,3.3 1.7,-2.63 -0.58,0.84l-0.34 0.5c-1.15,2.18 -0.71,8.42 -1.28,10.52 -0.91,3.31 -0.19,1.86 -0.97,5.6 -0.41,1.99 -0.87,4.06 -1.02,5.95 0.55,0.29 -0.19,-0.07 0.46,-0.03 0.79,0.05 1.08,0.6 1.11,0.5 0.02,-0.07 0.11,0.11 0.19,0.12 0.6,-1.77 0.2,-1.61 -0.26,-3.08 -0.02,-0.07 -0.98,0.77 -0.07,-1.27 0.53,-1.18 -0.11,-0.33 0.69,-0.6 0.78,2.65 -0.22,5.57 -0.76,8.1 -0.46,-0.98 -0.16,-1.09 -0.37,-1.56 -0.51,-1.13 0.52,-0.47 -0.75,-0.84 -0.2,0.6 -1.44,7.19 -1.29,8.81 3.58,1.79 9.25,0.06 13.82,-0.57 4.71,-0.66 9.62,-1.58 14.32,-2.05 -0.13,-1.3 -0.75,-1.3 -1.22,-2.09 1.5,-0.16 2.7,-0.28 3.35,-1.55l0.91 -3.27c-5.89,-2.23 -18.37,0.33 -25.13,0.79 0.09,-0.94 0.47,-5.46 1.17,-6.2l-0.14 3.88c1.72,-0.76 2.56,-4.75 3.08,-6.67 1.65,1.23 -0.22,0.9 2.4,0.93 1.78,0.02 7.26,-0.37 8.54,-1.55 -2.13,0.09 -3.74,0.59 -5.41,0.42 -1.88,-0.19 -3.38,-0.12 -5.33,-0.03l1.39 -0.51c0.9,-0.17 4.76,-0.15 10.15,-1.19 2.71,-0.52 8.14,-1.3 8.66,-4.44l-2.94 -0.69c-0.87,-1.69 0.65,0.36 0.19,-1.73l-15.29 1.14 1.05 -6.76c2.89,-0.38 11.6,-0.64 12.24,-1.83l-11.63 -0.84z"></path> <path class="fil2" d="M121.69 225.53c0.78,-0.59 2.03,-0.61 2.97,-0.65 9.15,-0.4 14.52,0.82 15.04,-5.2 -2.06,-1.92 -2.49,-1.98 -5.84,-1.81 -4.76,0.25 -16.83,0.5 -20.41,0.08 -0.23,3.95 -0.89,5.18 -0.65,9.67 -1.21,0.63 -0.7,-1.28 -1.29,1.35 -0.48,2.14 -0.85,10.15 -1.85,14.95 -0.42,2 -0.9,4.15 -1.05,6.27 0.42,0.06 0.5,-0.19 0.52,-0.2 1.1,-0.25 -0.5,-0.49 0.29,0 0.83,0.51 -0.15,0.6 1.2,1.06 -0.38,-5.7 -1.79,-2.13 -0.65,-4.6 0.55,-1.17 -0.07,-0.36 0.73,-0.62 0.78,2.8 -0.46,6.51 -0.72,8.18l-0.23 -1.01c-0.59,-1.96 0.26,-1.15 -0.97,-1.45 -0.25,1.14 -1.39,7.23 -1.24,8.79 4.11,2.08 20.61,-1.88 28.12,-2.62 -0.12,-1.38 -0.89,-1.39 -0.98,-1.83 -0.04,-0.17 -0.18,-0.16 -0.24,-0.26 1.46,-0.17 2.73,-0.27 3.35,-1.51l0.96 -3.38c-7.23,-2.08 -17.48,0.35 -25.15,0.86l0.66 -4.76c0.25,-0.76 0.24,-0.69 0.5,-1.08 -0.09,2.03 -0.34,2.58 0.29,3.47 1.32,-1.62 2.05,-5.32 2.93,-7.24 3.4,-0.47 19.13,-0.69 20.16,-5.74l-3.03 -0.72c-0.39,-0.94 0.06,0.36 0.1,-0.66 0.03,-0.76 0.72,0.6 -0.11,-1.02l-14.62 1.13c-0.53,-1.44 0.23,-5.26 0.58,-6.78l12.26 -1.42c-0.54,-1.15 -0.94,-0.73 -2.59,-0.55 -3.09,0.32 -1.98,-0.33 -6.07,-0.19l-2.35 -0.23c-0.09,-0.02 -0.26,0 -0.32,-0.13 -0.06,-0.13 -0.21,-0.09 -0.3,-0.15z"></path> <path class="fil1" d="M63.03 19.88c4,2.04 6.57,-0.03 12.57,6.21 -3.78,0.18 -7.7,-0.8 -12.4,-0.36 -3.74,0.35 -7.22,1.17 -10.37,2.59 -5.76,2.61 -9.6,8.08 -12.73,13.17 -7.67,12.48 -8.3,16.4 -20.37,24.77 -1.24,0.86 -2.73,1.84 -3.67,2.79 8.79,-2.72 20,-11.94 24.88,-18.36 9.62,-12.64 21.06,-21.9 38.26,-17.55 1.79,0.45 3.71,1.11 5.39,1.73 1.85,0.69 3.58,1.68 5.57,2.27 -0.4,-19.79 -25.28,-18.23 -27.13,-17.26z"></path> <path class="fil1" d="M16.58 116.26c0.98,-5.47 0.66,-8.71 3,-13.79l6.45 -10.71c0.92,5.7 0.19,14.86 -1.34,20.4 -0.91,3.32 -4.96,14.57 -6.38,16.17 2.61,-1.01 9.01,-10.54 10.97,-14.89 8.83,-19.61 -3.33,-33.71 16.02,-50.04 0.7,-0.59 1.19,-0.92 1.82,-1.53 0.73,-0.69 0.89,-1.01 1.69,-1.64 1.2,-0.97 2.63,-2.01 3.59,-3.07 -4.22,0.58 -12.98,5.79 -15.81,7.99 -17.01,13.25 -21.28,27.08 -20.01,51.11z"></path> <path class="fil1" d="M167.88 128.3c-1.13,-1.19 -5.74,-13.01 -6.69,-15.79 -2.74,-7.97 -4.15,-11.12 -1.2,-19.32 1.6,0.61 1.62,0.7 3.08,3.66 3.4,6.91 2.63,8.53 4.51,14.18 0.63,-8.4 -0.03,-14.06 -2.79,-22.6 -3.35,-10.34 -9.05,-18.2 -17.41,-24.38 -2.89,-2.14 -9.9,-6.36 -14.4,-6.89 11.01,8.73 20.55,16.17 18.5,35.05 -1.03,9.42 -2.48,10.46 4.2,21.22 1.95,3.13 10.26,14.25 12.2,14.87z"></path> <path class="fil1" d="M96.05 35.95c1.03,-0.08 3.18,-1.48 4.53,-2.12 13.51,-6.48 26.78,-0.78 36.64,8.6 11.23,10.69 13.37,18.73 31.11,26.55 -3.54,-1.5 -10.92,-9.45 -13.28,-12.61l-8.38 -11.68c-3.2,-4.33 -12.07,-12.68 -18.3,-15.13 -9.37,-3.69 -13.33,-2.16 -22.88,-1.3 1.8,-3.82 8.06,-7.04 13.77,-8.22 -4.46,-0.03 -11.55,2.58 -14.88,4.63 -4.04,2.48 -7.19,5.61 -8.33,11.28z"></path> <path class="fil1" d="M140.49 110.58c0,-7.47 1.57,-13.29 1.61,-17.21 -2.43,7.48 -4.48,19.85 -4.48,28.5 0,7.98 1.45,13.3 4.69,19.56 1.56,3.01 6.21,12.56 8.53,14.27 -3.81,-9.98 3.48,-12.88 5.57,-20.48 2.51,-9.14 -3.41,-15.45 -7.01,-20.38 1.98,8.08 0.51,11.16 -0.68,19.9 -2.85,-0.21 -5.55,-6.71 -6.34,-9.27 -1.5,-4.9 -1.89,-9.43 -1.89,-14.89z"></path> <path class="fil3" d="M74.94 82.1c0.69,-1.44 0.67,-1.15 0.68,-3.27 -8.86,0.29 -6.69,-2.35 -12.59,-3.54 0.41,3.23 1.14,5.27 3.86,6.11 2.06,0.63 6.12,1.19 8.05,0.7z"></path> <path class="fil3" d="M107.66 78.83l0.24 2.95c1.07,0.48 11.95,2.44 12.17,-6.49 -5.75,1.33 -3.85,3.88 -12.41,3.54z"></path> </g> </svg> 