<svg xmlns="http://www.w3.org/2000/svg" height="20" width="20" viewBox="-10.0197675 -1.658045 86.837985 9.94827"><path d="M7.09436 5.37986V1.10807h.89253v1.64148h1.65453V1.10807h.889v4.2718h-.889V3.47732H7.98689v1.90253h-.89253m5.08-3.55317h-.83255v-.7761h.83255zm-.83255.38171h.83255V5.3654h-.83255zm1.3088.63853v-.57115h.42686v-.89394h.81845v.89394h.508v.57115h-.508v1.66793c0 .11747.03175.2152.05644.23812.02117.0229.14464.0522.2787.0522h.14815v.6202l-.381.0293c-.381.0261-.65616-.0459-.79375-.19263-.09878-.10125-.14464-.24483-.14464-.43744V2.87656h-.40922v-.0296m3.55954.60321c.13758-.0194.26458-.0455.33514-.0748.11994-.0459.1658-.11783.1658-.2353 0-.12066-.04586-.21873-.14463-.26424-.09172-.0554-.21873-.0751-.40923-.0751-.19402 0-.33866.0459-.41275.14676-.04586.072-.08819.16333-.11641.28398h-.79375c.02117-.26423.09172-.5027.23989-.67557.21872-.2808.59972-.41134 1.13594-.41134.33514 0 .64558.0752.91017.21873.26458.14675.40569.38523.40569.77681v1.802c0 .10125.03175.2025.05645.21872.02117.0554.06703.0751.11642.10125v.11748h-.889c-.0247-.072-.05644-.1143-.05644-.16334 0-.0487-.01411-.12735-.01411-.19897-.11995.12736-.24695.21873-.39159.31645-.1658.0917-.38452.1471-.60325.1471-.2787 0-.52564-.0783-.71614-.24482-.19402-.16969-.28927-.38524-.28927-.70203 0-.38488.1411-.67557.45155-.8389.17286-.1009.41275-.17287.72672-.19262zm.33514.46355c-.05292.0166-.127.0459-.21872.0459l-.1905.0261c-.17286.0194-.3175.0653-.39159.12065-.11641.072-.18697.18944-.18697.35278 0 .14676.04586.248.11642.31962.07056.072.17286.10124.28928.10124.17286 0 .33866-.0554.51152-.14675.14464-.10125.23636-.29069.23636-.5842v-.30692c-.04586.0162-.09172.0455-.1658.0716zm3.60186-.55351c-.02117-.12736-.04586-.21873-.11995-.31997-.09878-.11712-.24694-.19227-.43744-.19227-.28222 0-.45508.14676-.57503.411-.05292.14675-.07408.34254-.07408.58384 0 .24165.02117.40781.07408.55492.0882.26423.2928.3817.5574.3817.1905 0 .33513-.0459.40921-.1471.07408-.0977.11995-.2346.14464-.40782h.84314c-.02117.23495-.12347.48296-.26811.71791-.26458.36547-.64558.53833-1.15711.53833s-.89253-.14675-1.13242-.46319c-.24341-.28399-.36336-.69498-.36336-1.17475 0-.53799.11995-.96556.38453-1.25907.26458-.29033.62442-.45367 1.08303-.45367.39158 0 .73025.0914.9666.26423.24695.16334.40923.48295.46567.93663h-.8008v.0293m3.67947-1.11339c.17286.0748.28928.16298.39158.30974.09172.12735.14464.24483.16228.36583.02822.11747.02822.3362.02822.60043v1.85702h-.84666V3.45087c0-.16616-.01764-.30974-.09172-.41099-.07056-.1471-.21873-.21872-.43392-.21872-.21872 0-.38453.0716-.4833.21872-.11995.14676-.17287.36548-.17287.62971v1.71027h-.81844V1.137h.81844v1.49155c.127-.18945.27164-.30692.40922-.3817.17287-.072.3175-.11748.508-.11748.19403.0162.3669.0455.52917.11747m2.19428-.42016h-.83256v-.7761h.83256zm-.83256.38171h.83256V5.3654h-.83256zm5.85259-.99907c.28928.10125.52564.29034.72672.52881.13759.21873.23636.4371.31045.70168.0459.24447.0741.48295.0741.70132 0 .57468-.11995 1.03787-.33867 1.4457-.3175.5288-.8008.79303-1.41816.79303h-1.83798V1.10807h1.83798c.23636 0 .4833.0296.64558.10125zm-1.6369 3.45264h.81846c.40922 0 .71613-.21873.889-.6297.1023-.21873.14816-.50907.14816-.81916 0-.43745-.0741-.77329-.19403-1.01177-.14111-.24447-.4057-.33584-.81844-.33584h-.84314zm4.61787-1.21179c.14817-.0194.26459-.0455.33514-.0748.11995-.0459.1658-.11783.1658-.2353 0-.12066-.0459-.21873-.13405-.26424-.1023-.0554-.22578-.0751-.42333-.0751-.19403 0-.33514.0459-.40922.14676-.0459.072-.0917.16333-.11995.28398h-.79375c.0282-.26423.0917-.5027.23636-.67557.22225-.2808.61384-.41134 1.143-.41134.33514 0 .6491.0752.9137.21873.27164.14675.40922.38523.40922.77681v1.802c0 .10125.0282.2025.0529.21872.0212.0554.0776.0751.12347.10125v.11748h-.89606c-.0282-.072-.0459-.1143-.0459-.16334 0-.0487-.0282-.12735-.0282-.19897-.11994.12736-.2399.21873-.381.31645-.17286.0917-.39511.1471-.61383.1471-.28222 0-.52917-.0783-.7232-.24482-.1905-.16969-.28928-.38524-.28928-.70203 0-.38488.14464-.67557.46567-.8389.16228-.1009.40922-.17287.71967-.19262zm.50095.39193c-.0459.0162-.0917.0455-.16581.0716-.0459.0166-.11642.0459-.21872.0459l-.18697.0261c-.1764.0194-.32103.0653-.39511.12065-.11995.072-.1905.18944-.1905.35278 0 .14676.0564.248.127.31962.067.072.16227.10124.28222.10124.17639 0 .33866-.0554.51153-.14675.14463-.10125.23636-.29069.23636-.5842zm1.20296-.99518v-.57115h.42687v-.89394h.81492v.89394h.508v.57115h-.508v1.66793c0 .11747.0282.21837.0564.23812.0177.0261.14464.0522.28928.0522h.1376v.6202l-.381.0293c-.38453.0261-.64911-.0459-.79022-.19263-.10231-.10125-.14817-.24483-.14817-.43744V2.87656h-.4057v-.0296m3.58072.60321c.14464-.0194.26106-.0455.33867-.0748.11642-.0459.16228-.11783.16228-.2353 0-.12066-.0459-.21873-.14817-.26424-.0917-.0554-.21167-.0751-.4057-.0751-.19755 0-.33866.0459-.41274.14676-.0459.072-.0917.16333-.11995.28398h-.79375c.0212-.26423.0917-.5027.23989-.67557.21872-.2808.59972-.41134 1.13947-.41134.33867 0 .6491.0752.9137.21873.26458.14675.40922.38523.40922.77681v1.802c0 .10125.0282.2025.0565.21872.0176.0554.0705.0751.11642.10125v.11748h-.89253c-.0282-.072-.0459-.1143-.0459-.16334 0-.0487-.0282-.12735-.0282-.19897-.11995.12736-.24695.21873-.38453.31645-.17286.0917-.39158.1471-.61031.1471-.28222 0-.52916-.0783-.71966-.24482-.19404-.16972-.29634-.38527-.29634-.70206 0-.38488.14816-.67557.4586-.8389.17287-.1009.41276-.17287.73026-.19262zm.50095.39193c-.0459.0162-.0917.0455-.16228.0716-.0565.0166-.11994.0459-.21872.0459l-.19403.0261c-.17286.0194-.3175.0653-.39158.12065-.11995.072-.1905.18944-.1905.35278 0 .14676.0459.248.1164.31962.0741.072.17287.10124.29282.10124.17286 0 .33514-.0554.508-.14675.14817-.10125.23989-.29069.23989-.5842zm3.88761.20497c.0177.19931.0741.34642.1658.43815.14464.17321.4057.26458.77259.26458.21872 0 .381-.0198.52564-.0751.26458-.0914.39158-.26494.39158-.50024 0-.14676-.0706-.24836-.19756-.33655-.11994-.0751-.31044-.1471-.60325-.2025l-.45155-.0917c-.45861-.0981-.77611-.21872-.94192-.33655-.28928-.19297-.43744-.50976-.43744-.9218 0-.38242.14816-.70274.43744-.96732.28575-.2353.69497-.3824 1.2312-.3824.45508 0 .8396.12416 1.1571.36617.31398.24165.47979.57503.49742 1.0294h-.8643c-.0247-.26458-.11642-.42827-.33514-.54574-.14464-.0751-.3175-.1016-.52917-.1016-.24694 0-.43391.0459-.55386.14711-.14464.0917-.21872.21907-.21872.38241 0 .14393.0741.26493.21872.3369.0917.0554.2928.12735.5715.17321l.74789.16334c.33867.0751.58208.17321.74436.32032.27517.19297.39159.48366.39159.86607s-.14464.72884-.45156.96767c-.32103.26458-.73025.38241-1.28411.38241-.55386 0-1.00542-.11783-1.32292-.3824-.31044-.26495-.47978-.6015-.47978-1.03965h.81845v.0459m3.4678 1.92995h.23989c.0706 0 .14464-.0166.19756-.072.0459-.0162.0917-.091.13758-.2085.0564-.10089.0564-.17286.0564-.20214L46.63365 2.202h.9137l.70203 2.3308.65616-2.3308h.8643l-1.08302 3.10338c-.21872.59973-.39158.96485-.51153 1.10843-.11994.14676-.36336.21837-.71966.21837h-.36336v-.6551h.0706m3.71827-1.61005c.0177.14676.0459.23778.11995.30974.0988.127.28927.17286.57855.17286.16934 0 .28575-.0261.38806-.072.0917-.0455.14464-.11712.14464-.21837 0-.1009-.0494-.16969-.11995-.21837-.067-.049-.3669-.11748-.8749-.23495-.36688-.1009-.60324-.19226-.74788-.33902-.14463-.127-.21872-.31609-.21872-.58032 0-.2935.127-.5281.33867-.74683.24342-.21837.55739-.30974.96308-.30974.39159 0 .72672.0684.97014.23495.23989.16933.39158.43674.43745.82162h-.82198c0-.0914-.0459-.19226-.1023-.23812-.0917-.127-.23284-.17287-.45156-.17287-.17286 0-.3175.0261-.38453.072-.067.0455-.13052.12065-.13052.19226 0 .10125.0635.17287.13052.21837.067.0459.35278.11748.86784.21873.33514.0716.5715.19226.74789.36512.16227.16298.23636.35207.23636.59972 0 .30974-.11642.57715-.35631.77294-.24341.19544-.60325.28046-1.08655.28046-.508 0-.8749-.0882-1.11125-.30657-.24695-.21837-.3669-.4826-.3669-.79233h.8502v-.0293M53.213 2.84692v-.57115h.42686v-.89394h.81845v.89394h.508v.57115h-.508v1.66793c0 .11747.0247.21837.0564.23812.0141.0261.13406.0522.2787.0522h.1447v.6202l-.381.0293c-.38806.0261-.65617-.0459-.80081-.19263-.0953-.0981-.13758-.24483-.13758-.43744V2.87656h-.4057v-.0296m4.37443-.55566c.21872.10124.40569.26422.55386.45684.1164.19896.21872.40781.23636.65581.0282.14358.0282.36195.0282.62618h-2.30011c.0282.3101.13053.52882.33867.67557.127.0716.2928.11748.46566.11748.1905 0 .33514-.0459.4586-.1471.0706-.0455.11643-.11713.17287-.21838h.83609c-.0177.20214-.11995.39158-.31045.58385-.2928.3101-.6738.45367-1.18533.45367-.40922 0-.79728-.11748-1.11125-.3817-.31397-.26424-.48331-.67205-.48331-1.25625 0-.55457.14464-.9592.43745-1.246.2928-.28717.6738-.43745 1.12889-.43745.27516-.0293.51505.0261.73378.11747zm-1.23473.70167c-.11641.11712-.1905.29033-.21872.4826h1.4217c-.0141-.21837-.0952-.38806-.21873-.5087-.11994-.12419-.2787-.16652-.4833-.16652-.23636.0194-.381.0751-.50095.19262zm6.40292-.77329c.14817.0554.26458.14358.36689.29033.0917.11783.14464.23848.16228.41134.0282.0981.0282.26458.0282.45367v2.0045h-.84667v-2.0045c0-.11747-.0141-.20884-.0459-.28045-.0705-.1471-.21872-.21873-.4057-.21873-.21871 0-.38452.0914-.4833.29034-.0459.0914-.0741.20884-.0741.35595V5.4088h-.81844V3.52213c0-.1926-.0282-.31009-.0459-.41134-.0705-.14358-.21872-.21872-.40922-.21872-.24695 0-.3916.0751-.47978.21872-.0459.10125-.0776.21873-.0776.3916v1.9064h-.84314v-3.163h.8008v.45684c.0882-.1665.1905-.2935.28223-.36548.17286-.11747.36336-.19262.62794-.19262.24342 0 .43745.0554.58209.1764.1164.0882.21519.2152.26105.3817.1023-.19262.24342-.31644.41275-.41099.1658-.0949.35983-.11782.5715-.11782.14464-.0293.2928 0 .43392.0459m1.98976 2.14731c.0247.14676.0564.23778.127.30974.0917.127.28576.17286.57504.17286.17286 0 .2928-.0261.38452-.072.0988-.0455.14464-.11712.14464-.21837 0-.1009-.0459-.16969-.11641-.21837-.0741-.049-.3669-.11748-.87137-.23495-.35983-.1009-.59972-.19226-.74436-.33902-.14816-.127-.21872-.31609-.21872-.58032 0-.2935.11642-.5281.33867-.74683.23283-.21837.55386-.30974.9666-.30974.381 0 .7232.0684.96662.23495.23989.16933.381.43674.42686.82162h-.83961c0-.0914-.0529-.19226-.0988-.23812-.0917-.127-.23636-.17287-.45508-.17287-.17286 0-.32456.0261-.3916.072-.0705.0455-.12346.12065-.12346.19226 0 .10125.0529.17287.12347.21837.067.0459.35984.11748.87489.21873.33514.0716.5715.19226.74436.36512.1658.16298.23989.35207.23989.59972 0 .30974-.11641.57715-.3563.77294-.24342.19544-.61031.28046-1.09714.28046-.49742 0-.86431-.0882-1.10067-.30657-.24694-.21837-.3669-.4826-.3669-.79233h.86785v-.0293M3.88056.64664c.99483.24518 1.76741 1.01283 1.98614 1.97661.07408.33973.31044.58456.6491.63042-.33866.0261-.57502.2907-.6491.63041-.24695.99307-1.01953 1.75754-1.98614 1.97626-.33514.072-.57503.32033-.6209.65688-.02468-.36619-.28927-.5849-.62441-.65688C1.64042 5.6254.86431 4.84787.65617 3.88408.58209 3.54436.33514 3.29918 0 3.25368c.36336-.0261.58208-.2907.65617-.63043C.89253 1.63971 1.66864.86572 2.63525.64665 2.97039.57154 3.20675.3362 3.25967 0c.04586.3362.28575.5715.62089.64664zm-.6209 3.67206c.60679 0 1.05834-.48048 1.05834-1.06503 0-.60114-.47625-1.05869-1.05833-1.05869-.57856 0-1.06186.4805-1.06186 1.0587S2.6811 4.3187 3.25967 4.3187zM1.85915 1.63971h1.15711v-.5094c-.45861.0455-.8502.21871-1.15711.5094zm1.68628 0h1.16416c-.3175-.29069-.72672-.4639-1.16416-.5094zm-.28575 3.73733c.6491 0 1.0407-.18944 1.42522-.52917H1.85914c.38453.33973.86783.52917 1.40053.52917zm0-1.5942c.28575 0 .52916-.23848.52916-.52917s-.23988-.52917-.52916-.52917c-.28575 0-.5327.23848-.5327.52917 0 .2907.24342.52916.5327.52916zm-1.1818.53586c-.2646-.29104-.40923-.65334-.40923-1.06503 0-.41169.14464-.79375.40922-1.05869H1.4217c-.1905.31045-.28223.67628-.28223 1.0587 0 .38205.09172.74788.28223 1.06502zm3.04446 0c.16228-.31714.2787-.68297.2787-1.06503 0-.3824-.0882-.74824-.2787-1.05869h-.65616c.24341.28434.40922.647.40922 1.0587 0 .41168-.1658.79374-.40922 1.06502z" fill="#414141" fill-rule="evenodd"/></svg>