<?xml version="1.0" encoding="iso-8859-1"?>
<!-- Uploaded to: SVG Repo, www.svgrepo.com, Generator: SVG Repo Mixer Tools -->
<svg height="20px" width="20px" version="1.1" id="Layer_1" xmlns="http://www.w3.org/2000/svg" xmlns:xlink="http://www.w3.org/1999/xlink" 
	 viewBox="0 0 512 512" xml:space="preserve">
<path style="fill:#3C5366;" d="M359.984,95.985c-9.111,0-16.733-6.927-17.597-15.998l-3.519-51.192
	C337.267,12.478,328.389,0,311.991,0h-127.98c-16.397,0-25.276,12.478-26.876,28.795l-3.519,51.192
	c-0.864,9.071-8.487,15.998-17.597,15.998c-17.669,0-31.995,14.326-31.995,31.995v255.96c0,17.669,14.326,31.995,31.995,31.995
	c9.111,0,16.733,6.927,17.597,15.997l3.519,51.272c1.6,15.997,10.478,28.796,26.876,28.796h127.98
	c16.397,0,25.276-12.478,26.876-28.796l3.519-51.272c0.864-9.071,8.487-15.997,17.597-15.997c17.669,0,31.995-14.326,31.995-31.995
	V127.98C391.979,110.311,377.653,95.985,359.984,95.985z"/>
<path style="fill:#123247;" d="M136.019,111.982h223.965c8.839,0,15.998,7.159,15.998,15.997v255.96
	c0,8.839-7.159,15.997-15.998,15.997H136.019c-8.839,0-15.997-7.159-15.997-15.997V127.98
	C120.021,119.141,127.18,111.982,136.019,111.982z"/>
<path style="fill:#35495C;" d="M248.001,367.942c-61.846,0-111.982-50.136-111.982-111.982s50.136-111.982,111.982-111.982
	s111.982,50.136,111.982,111.982S309.848,367.942,248.001,367.942z M248.001,159.975c-53.008,0-95.985,42.977-95.985,95.985
	s42.977,95.985,95.985,95.985s95.985-42.977,95.985-95.985S301.009,159.975,248.001,159.975z"/>
<path style="fill:#456075;" d="M295.994,15.997h-95.985c-8.839,0-15.997-7.159-15.997-15.997h127.98
	C311.991,8.839,304.832,15.997,295.994,15.997z"/>
<g>
	<path style="fill:#35495C;" d="M248.001,335.947c-44.177,0-79.988-35.81-79.988-79.987s35.81-79.988,79.988-79.988
		s79.987,35.81,79.987,79.988S292.178,335.947,248.001,335.947z M248.001,191.97c-35.338,0-63.99,28.652-63.99,63.99
		s28.652,63.99,63.99,63.99s63.99-28.652,63.99-63.99S283.34,191.97,248.001,191.97z"/>
	<path style="fill:#35495C;" d="M248.001,303.952c-26.508,0-47.992-21.485-47.992-47.992s21.485-47.992,47.992-47.992
		s47.992,21.485,47.992,47.992S274.509,303.952,248.001,303.952z M248.001,223.965c-17.669,0-31.995,14.326-31.995,31.995
		s14.326,31.995,31.995,31.995s31.995-14.326,31.995-31.995S265.671,223.965,248.001,223.965z"/>
</g>
<path style="fill:#4C9CD6;" d="M287.995,263.959c-4.415,0-7.999-3.583-7.999-7.999c0-17.669-14.326-31.995-31.995-31.995
	c-4.415,0-7.999-3.583-7.999-7.999c0-4.415,3.583-7.999,7.999-7.999c26.508,0,47.992,21.485,47.992,47.992
	C295.994,260.375,292.41,263.959,287.995,263.959z"/>
<path style="fill:#3CB54A;" d="M248.001,335.947c-4.415,0-7.999-3.583-7.999-7.999c0-4.415,3.583-7.999,7.999-7.999
	c35.338,0,63.99-28.652,63.99-63.99s-28.652-63.99-63.99-63.99c-4.415,0-7.999-3.583-7.999-7.999c0-4.415,3.583-7.999,7.999-7.999
	c44.177,0,79.987,35.81,79.987,79.988S292.178,335.947,248.001,335.947z"/>
<path style="fill:#DE333F;" d="M248.001,367.942c-61.846,0-111.982-50.136-111.982-111.982c0-4.415,3.583-7.999,7.999-7.999
	s7.999,3.583,7.999,7.999c0,53.008,42.977,95.985,95.985,95.985s95.985-42.977,95.985-95.985s-42.977-95.985-95.985-95.985
	c-4.415,0-7.999-3.583-7.999-7.999s3.583-7.999,7.999-7.999c61.846,0,111.982,50.136,111.982,111.982
	S309.848,367.942,248.001,367.942z"/>
<g>
	<path style="fill:#35495C;" d="M391.979,239.962v127.98c8.839,0,15.997-7.159,15.997-15.997V255.96
		C407.976,247.121,400.817,239.962,391.979,239.962z"/>
	<path style="fill:#35495C;" d="M391.979,135.979v47.992c8.839,0,15.997-7.159,15.997-15.997v-15.997
		C407.976,143.138,400.817,135.979,391.979,135.979z"/>
	<path style="fill:#35495C;" d="M322.87,467.127c-1.648,16.413-15.502,28.876-31.995,28.796H184.011
		c-4.415,0-7.999,3.583-7.999,7.999s3.583,7.999,7.999,7.999h127.98c16.397,0,25.276-12.478,26.876-28.796l3.519-51.192
		c0.864-9.071,8.487-15.997,17.597-15.997h-9.119c-12.814,0.008-23.572,9.654-24.956,22.396
		C324.389,452.089,322.87,467.127,322.87,467.127z"/>
</g>
</svg>