<?xml version="1.0" encoding="iso-8859-1"?>
<!-- Uploaded to: SVG Repo, www.svgrepo.com, Generator: SVG Repo Mixer Tools -->
<svg height="20px" width="20px" version="1.1" id="Layer_1" xmlns="http://www.w3.org/2000/svg" xmlns:xlink="http://www.w3.org/1999/xlink" 
	 viewBox="0 0 480.655 480.655" xml:space="preserve">
<g transform="translate(0 -540.36)">
	<g>
		<path style="fill:#3C3C3C;" d="M135.454,921.848l211.875,0.166l13.717,14.836h-0.076l-5.332,4.291l-229.623,0.09l-4.918-3.99
			h-0.029L135.454,921.848L135.454,921.848z"/>
		<path style="fill:#454648;" d="M361.045,936.851l-13.716-14.838l-211.875-0.165l-14.385,15.392L361.045,936.851z"/>
		<path style="fill:#1F1F1F;" d="M360.99,936.832l-5.353,4.309l-229.623,0.09l-4.931-4.001L360.99,936.832z"/>
		<path style="fill:#2C2D2D;" d="M263.479,907.285c0,0,3.111,13.458,4.281,17.331c0.328,1.086-0.844,2.767-1.978,2.77
			c-18.242,0.04-32.213-0.015-51.635,0c-1.311,0-2.81-1.758-2.506-3.034c1.021-4.285,4.467-17.199,4.467-17.199L263.479,907.285z"/>
	</g>
	<path style="fill:#232424;" d="M216.108,907.152c0,0-0.538,2.04-0.803,3.037h48.859c-0.211-0.903-0.686-2.904-0.686-2.904
		L216.108,907.152L216.108,907.152z"/>
	<path style="fill:#18191B;" d="M476.655,620.144H4c-2.216,0-4,1.784-4,4v280.19c0,2.216,1.784,4,4,4h472.655c2.216,0,4-1.784,4-4
		V624.144C480.655,621.928,478.871,620.144,476.655,620.144L476.655,620.144z"/>
	<path style="fill:#394249;" d="M462.847,634.725H17.808c-2.087,0-3.766,1.588-3.766,3.561v249.429c0,1.973,1.68,3.561,3.766,3.561
		h445.04c2.087,0,3.766-1.588,3.766-3.561V638.286C466.614,636.314,464.934,634.725,462.847,634.725z"/>
	<g>
		<path style="fill:#424B52;" d="M261.153,634.725l140.1,256.551h61.594c2.087,0,3.768-1.588,3.768-3.561V783.897l-81.461-149.172
			H261.153z"/>
		<path style="fill:#424B52;" d="M194.149,634.725l140.1,256.551h43.004l-140.1-256.551H194.149L194.149,634.725z"/>
	</g>
	<g>
		<path style="fill:#454648;" d="M229.817,895.24h1.11v7.267h3.994v0.934h-5.103L229.817,895.24L229.817,895.24z"/>
		<path style="fill:#454648;" d="M242.22,895.872v1.17c-0.374-0.348-0.773-0.608-1.198-0.78c-0.421-0.172-0.87-0.258-1.346-0.258
			c-0.937,0-1.655,0.288-2.153,0.862c-0.498,0.571-0.747,1.399-0.747,2.483c0,1.08,0.249,1.908,0.747,2.483
			c0.498,0.571,1.216,0.857,2.153,0.857c0.476,0,0.925-0.086,1.346-0.258c0.425-0.172,0.824-0.432,1.198-0.78v1.159
			c-0.388,0.264-0.8,0.461-1.236,0.593c-0.432,0.132-0.89,0.198-1.373,0.198c-1.241,0-2.219-0.379-2.933-1.137
			c-0.714-0.762-1.071-1.8-1.071-3.115c0-1.318,0.357-2.357,1.071-3.115c0.714-0.762,1.692-1.143,2.933-1.143
			c0.491,0,0.952,0.066,1.384,0.198C241.431,895.418,241.839,895.612,242.22,895.872L242.22,895.872z"/>
		<path style="fill:#454648;" d="M245.055,896.152v6.378h1.34c1.132,0,1.959-0.256,2.483-0.769c0.527-0.513,0.791-1.322,0.791-2.428
			c0-1.099-0.264-1.902-0.791-2.411c-0.524-0.513-1.351-0.769-2.483-0.769L245.055,896.152L245.055,896.152z M243.945,895.24h2.28
			c1.589,0,2.756,0.331,3.499,0.994c0.743,0.659,1.115,1.692,1.115,3.098c0,1.414-0.374,2.452-1.121,3.115
			c-0.747,0.663-1.912,0.994-3.494,0.994h-2.28V895.24L243.945,895.24z"/>
		<path style="fill:#454648;" d="M458.444,897.873h2.95c0.554,0,1,0.446,1,1v2.066c0,0.554-0.446,1-1,1h-2.95c-0.554,0-1-0.446-1-1
			v-2.066C457.444,898.319,457.89,897.873,458.444,897.873z"/>
		<path style="fill:#454648;" d="M468.698,897.873h2.95c0.554,0,1,0.446,1,1v2.066c0,0.554-0.446,1-1,1h-2.95c-0.554,0-1-0.446-1-1
			v-2.066C467.698,898.319,468.144,897.873,468.698,897.873z"/>
	</g>
</g>
</svg>